# xmcd
#
# Track frame offsets:
#	150
#	22203
#	37278
#	55152
#	73244
#	92385
#	111491
#	129331
#	152590
#	174635
#	189678
#	207565
#	225640
#	244770
#	263932
#	281704
#	304937
#	328369
#
# Disc length: 4690 seconds
#
# Revision: 1
# Processed by: cddbd v1.5.2PL0 Copyright (c) Steve Scherf et al.
# Submitted via: audiograbber 1.83.01
#
DISCID=1a125012
DTITLE=Sound Choice Power Picks - SC3358
DYEAR=1900
DGENRE=Country
TTITLE0=When You Think of Me - Mark Willis
TTITLE1=Love You Out Loud - Rascal Flatts
TTITLE2=Stay Gone - Jimmy Wayne
TTITLE3=Hurt - Johnny Cash
TTITLE4=Suddenly - LeAnn Rimes
TTITLE5=Rock A Bye Heart - Steve Holy
TTITLE6=Whatever It Takes - Kellie Coffey
TTITLE7=Snowfall On The Sand - Steve Wariner
TTITLE8=When You Think of Me -vocal - Mark Willis
TTITLE9=Love You Out Loud -vocal - Rascal Flatts
TTITLE10=Stay Gone -vocal - Jimmy Wayne
TTITLE11=Hurt -vocal - Johnny Cash
TTITLE12=Suddenly -vocal - LeAnn Rimes
TTITLE13=Rock A Bye Heart -vocal - Steve Holy
TTITLE14=Whatever It Takes -vocal - Kellie Coffey
TTITLE15=Snowfall On The Sand -vocal - Steve Wariner
TTITLE16=Picture - Kid Rock and Sheryl Crow
TTITLE17=Picture -vocal - Kid Rock and Sheryl Crow
EXTD=
EXTT0=
EXTT1=
EXTT2=
EXTT3=
EXTT4=
EXTT5=
EXTT6=
EXTT7=
EXTT8=
EXTT9=
EXTT10=
EXTT11=
EXTT12=
EXTT13=
EXTT14=
EXTT15=
EXTT16=
EXTT17=
PLAYORDER=
